<svg viewBox="0 0 1360 440" fill="none" stroke-linecap="square" stroke-miterlimit="10" xmlns="http://www.w3.org/2000/svg"><clipPath id="a"><path d="M0 0h1360v440H0V0z"/></clipPath><g clip-path="url(#a)"><path fill="none" d="M0 0h1360v440H0zM1337.6 18.8v301.4"/><path stroke="#d9d9d9" stroke-width="2" stroke-linejoin="round" stroke-linecap="butt" stroke-dasharray="8.0,6.0" d="M1337.6 18.8v301.4"/><path fill="none" d="M1136.1 18.8v298.8"/><path stroke="#d9d9d9" stroke-width="2" stroke-linejoin="round" stroke-linecap="butt" stroke-dasharray="8.0,6.0" d="M1136.1 18.8v298.8"/><path fill="none" d="M981.5 18.8V313"/><path stroke="#d9d9d9" stroke-width="2" stroke-linejoin="round" stroke-linecap="butt" stroke-dasharray="8.0,6.0" d="M981.5 18.8V313"/><path fill="#3d85c6" d="M16.4 18.8H393v41.6H16.4z" fill-rule="evenodd"/><path fill="#85200c" d="M393 60.4h201.6v41.7H393z" fill-rule="evenodd"/><path fill="none" d="M382.6 394.6h200.6V433H382.6z"/><path fill="#444" d="M408.2 421.3h-2.7v-6.7h-6.7v6.7H396V406h2.7v6.3h6.7v-6.3h2.7v15.2zm13.7-13h-4.7v13h-2.6v-13h-4.7V406h12v2.2zm5.4-2.2 4.4 11.6 4.4-11.6h3.4v15.2h-2.6v-5l.2-6.7-4.4 11.7h-2l-4.4-11.7.3 6.7v5h-2.7V406h3.4zm18 13h6.8v2.2h-9.5V406h2.6v13zm16.8-3.4v5.6h-2.6V406h5.8q2.5 0 4 1.4 1.5 1.3 1.5 3.4 0 2.3-1.5 3.5-1.4 1.3-4 1.3H462zm0-2.2h3.2q1.4 0 2.1-.6.7-.7.7-2 0-1.2-.7-1.9-.8-.7-2-.7H462v5.2zm17.6 4.3h-5.9l-1.2 3.5H470l5.7-15.2h2.4l5.7 15.2H481l-1.3-3.5zm-5.1-2.2h4.4l-2.2-6.2-2.2 6.2zm16.4-.2h-3v5.9h-2.6V406h5.4q2.6 0 4 1.2t1.4 3.4q0 1.5-.7 2.6-.7 1-2 1.5l3.4 6.4H494l-3-5.8zm-3-2h2.8q1.3 0 2-.7.8-.7.8-1.9t-.7-1.9q-.7-.6-2-.6H488v5zm18.7 4q0-1-.7-1.5-.7-.6-2.6-1.1-1.8-.6-2.9-1.3-2-1.3-2-3.4 0-1.8 1.4-3 1.5-1.2 3.9-1.2 1.6 0 2.8.6 1.3.6 2 1.7.7 1 .7 2.4h-2.6q0-1.2-.8-1.9-.7-.7-2.1-.7-1.3 0-2 .6-.7.5-.7 1.5 0 .8.7 1.4.8.6 2.6 1 1.7.6 2.8 1.3 1 .7 1.6 1.5.5.9.5 2 0 2-1.5 3-1.4 1.2-3.9 1.2-1.6 0-3-.6t-2.2-1.7q-.7-1-.7-2.5h2.6q0 1.3.8 2 .9.7 2.5.7 1.4 0 2-.5.8-.6.8-1.5zm7.7 3.9h-2.6V406h2.6v15.2zm15.2 0H527l-6.7-10.8v10.8h-2.7V406h2.7L527 417v-10.8h2.6v15.2zm14.8-2q-.8 1.1-2.3 1.6-1.5.6-3.3.6-1.9 0-3.4-.9-1.4-.8-2.2-2.4-.8-1.6-.9-3.8v-1.2q0-3.4 1.7-5.3 1.6-2 4.6-2 2.5 0 4 1.3 1.5 1.2 1.8 3.6h-2.6q-.4-2.8-3.2-2.8-1.7 0-2.7 1.3-.9 1.3-1 3.8v1.1q0 2.5 1.1 3.8 1 1.4 2.9 1.4 2 0 2.9-1v-2.9h-3.2v-2h5.8v5.8z"/><path fill="#3d85c6" d="M356.4 401.4H382v24.8h-25.7z" fill-rule="evenodd"/><path fill="none" d="M606.8 394.6h167V433h-167z"/><path fill="#444" d="M620.3 421.3V406h4.5q2 0 3.6 1 1.5.8 2.4 2.5.8 1.6.8 3.7v.8q0 2.1-.8 3.8-.9 1.6-2.5 2.5-1.5.9-3.6.9h-4.4zm2.7-13v10.9h1.7q2 0 3.2-1.3 1-1.3 1.1-3.7v-.9q0-2.4-1-3.7-1.1-1.3-3.2-1.3H623zm23.4 5.8q0 2.2-.8 4-.8 1.6-2.2 2.5-1.4.9-3.3.9-1.8 0-3.3-.9-1.4-.9-2.2-2.6-.8-1.6-.8-3.8v-.9q0-2.2.8-3.9.8-1.7 2.2-2.6 1.4-.9 3.3-.9 1.8 0 3.3 1 1.4.8 2.2 2.5.8 1.6.8 3.9v.8zm-2.7-.8q0-2.5-1-3.9-.9-1.3-2.6-1.3-1.7 0-2.7 1.3-1 1.4-1 3.8v1q0 2.4 1 3.8 1 1.3 2.7 1.3 1.8 0 2.7-1.3 1-1.3 1-3.9v-.8zm17.2 4.2 2.3-11.4h2.6l-3.5 15.2h-2.5l-2.9-11-3 11h-2.4L648 406h2.6l2.3 11.4 3-11.4h2.1l2.9 11.4zm18.9 3.8h-2.6l-6.8-10.8v10.8h-2.6V406h2.6l6.8 10.8v-10.8h2.6v15.2zm5.7-2.1h7v2h-9.6v-15h2.6v13zm20.4-5q0 2.1-.8 3.8-.8 1.7-2.2 2.6-1.4.9-3.3.9-1.8 0-3.3-.9-1.4-.9-2.2-2.6-.8-1.6-.8-3.8v-.9q0-2.2.8-3.9.8-1.7 2.2-2.6 1.4-.9 3.3-.9 1.8 0 3.3 1 1.4.8 2.2 2.5.8 1.6.8 3.9v.8zm-2.7-.9q0-2.5-1-3.9-.8-1.3-2.6-1.3-1.7 0-2.7 1.3-1 1.4-1 3.8v1q0 2.4 1 3.8 1 1.3 2.7 1.3 1.8 0 2.7-1.3 1-1.3 1-3.9v-.8zm13.6 4.5h-5.9l-1.2 3.5h-2.8l5.8-15.2h2.3l5.8 15.2H718l-1.2-3.5zm-5.2-2.2h4.4l-2.2-6.2-2.2 6.2zm10.9 5.7V406h4.5q2 0 3.5 1 1.6.8 2.4 2.5.9 1.6.9 3.7v.8q0 2.1-.9 3.8-.8 1.6-2.4 2.5-1.6.9-3.7.9h-4.3zm2.6-13v10.9h1.7q2.1 0 3.2-1.3t1.1-3.7v-.9q0-2.4-1-3.7-1-1.3-3.1-1.3H725z"/><path fill="#85200c" d="M581.3 401.4h25.8v24.8h-25.8z" fill-rule="evenodd"/><path fill="none" d="M798.5 394.6h149V433h-149z"/><path fill="#444" d="M820.9 414.5h-6.3v4.7h7.3v2H812v-15h9.8v2h-7.2v4.2h6.3v2.1zm8.4-2.9 3.2-5.5h3l-4.6 7.6 4.7 7.6h-3l-3.3-5.6-3.3 5.6h-3l4.6-7.6-4.6-7.6h3.1l3.2 5.5zm17.1 3h-6.2v4.6h7.3v2h-10v-15h9.9v2h-7.2v4.2h6.2v2.1zm14.8 1.8q-.3 2.4-1.8 3.7-1.6 1.4-4.2 1.4-1.8 0-3.2-.9-1.3-.8-2-2.4-.8-1.6-.9-3.7v-1.4q0-2.1.8-3.8.8-1.6 2.2-2.5 1.4-.9 3.3-.9 2.5 0 4 1.4t1.8 3.8h-2.6q-.2-1.6-1-2.3-.8-.7-2.2-.7-1.7 0-2.7 1.2-.9 1.3-1 3.7v1.3q0 2.5 1 3.8.8 1.3 2.5 1.3 1.6 0 2.4-.7.8-.7 1-2.3h2.6zm13.4-10.3v10.2q0 2.4-1.5 3.8-1.6 1.4-4.1 1.4-2.6 0-4.2-1.4-1.5-1.4-1.5-3.9v-10h2.6v10q0 1.6.8 2.4.8.8 2.3.8 3 0 3-3.2v-10h2.6zm13.8 2.2h-4.7v13H881v-13h-4.7V406h12v2.2zm10.9 6.2H893v4.7h7.3v2h-10v-15h10v2H893v4.2h6.3v2.1z"/><path fill="#5b9c5b" d="M771.8 401.4h25.7v24.8h-25.7zM594.6 60.4h154.6v41.7H594.6z" fill-rule="evenodd"/><path fill="#3d85c6" d="M16.4 146.7h578.1v41.6H16.4zM749.2 146.7h389.6v41.6H749.2z" fill-rule="evenodd"/><path fill="#fff" d="m1096 167.2.7-1.5 1.2-1.6q1.4-1 2.6-1 1.8 0 1.8 1.5.2 2.2 1 5 .3 1.4 1.1 1.4.6 0 1-.7l3.6-3.5q3-2.8 4.1-4.2 1.4-1.6 3.7-3.8 2.3-2 3.5-2.8 1-.7 1.9-.6.8.2.7 1.2-.2 1.1 0 2.2v1q-2.8 3.2-4.4 4.7-4 4.6-5.3 5.7l-8.9 8.6q-1.4 1.3-2.6 1.4-1.6.1-3-1.2-1.8-1.5-2-3.5-.1-2.3-.4-3.4-.4-2-.3-4.9z"/><path fill="#d9d9d9" d="M393 18.8h356.2v41.6H393z" fill-rule="evenodd"/><path fill="#444" d="M536 41.4v5.7h-2.6V31.9h5.8q2.5 0 4 1.3 1.5 1.4 1.5 3.5 0 2.3-1.4 3.5-1.5 1.2-4.1 1.2H536zm0-2h3.2q1.4 0 2.1-.7.8-.7.8-2 0-1.2-.8-2-.7-.6-2-.7H536v5.3zm17.7 4.1h-6l-1.2 3.6h-2.7l5.7-15.2h2.4l5.7 15.2H555l-1.2-3.6zm-5.2-2h4.4l-2.2-6.4-2.2 6.3zm21.8-9.6V42q0 2.5-1.6 3.9-1.5 1.4-4 1.4-2.7 0-4.2-1.4-1.6-1.4-1.6-3.9V32h2.7v10q0 1.6.7 2.4.8.8 2.3.8 3 0 3-3.2V32h2.7zM581 43.2q0-1-.7-1.6-.7-.5-2.5-1-1.9-.6-3-1.3-2-1.3-2-3.4 0-1.8 1.5-3t3.9-1.2q1.5 0 2.8.6 1.2.6 2 1.6.6 1.1.6 2.4H581q0-1.2-.7-1.8-.8-.7-2.2-.7-1.3 0-2 .6-.7.5-.7 1.5 0 .8.8 1.4.8.5 2.5 1 1.8.6 2.9 1.3 1 .6 1.5 1.5t.5 2q0 2-1.4 3-1.5 1.2-4 1.2-1.6 0-3-.6t-2.1-1.7q-.8-1-.8-2.5h2.6q0 1.3.9 2t2.4.7q1.4 0 2.1-.6.7-.5.7-1.4zm13.8-2.9h-6.2V45h7.3v2h-10V32h9.9v2h-7.2v4.2h6.2v2.1zm3.2 6.8V31.9h4.5q2 0 3.6.9 1.5.9 2.4 2.5.8 1.7.8 3.8v.8q0 2.1-.8 3.8-.9 1.6-2.5 2.5-1.6.9-3.6.9H598zm2.6-13V45h1.8q2 0 3.2-1.3 1-1.3 1-3.8v-.8q0-2.5-1-3.8-1-1.3-3.1-1.3h-1.9z"/><path fill="#85200c" d="M393 188.3h201.6V230H393z" fill-rule="evenodd"/><path fill="#5b9c5b" d="M594.6 188.3h154.6V230H594.6z" fill-rule="evenodd"/><path fill="#d9d9d9" d="M594.6 146.7h154.6v41.6H594.6z" fill-rule="evenodd"/><path fill="#444" d="M636.8 169.4v5.6H634v-15.2h5.8q2.6 0 4 1.4 1.6 1.3 1.6 3.5T644 168q-1.5 1.3-4.1 1.3h-3.1zm0-2.2h3.1q1.4 0 2.2-.6.7-.7.7-2 0-1.1-.7-1.9-.8-.7-2.1-.7h-3.2v5.2zm17.6 4.3h-5.9l-1.2 3.5h-2.8l5.8-15.2h2.3l5.8 15.2h-2.8l-1.2-3.5zm-5.2-2.2h4.5l-2.2-6.2-2.3 6.2zm21.8-9.5V170q0 2.4-1.5 3.8-1.6 1.4-4.2 1.4t-4.1-1.4q-1.5-1.4-1.5-3.8v-10.2h2.6V170q0 1.5.8 2.3.7.8 2.2.8 3 0 3-3.2v-10h2.7zm10.7 11.3q0-1-.7-1.5-.7-.6-2.5-1.1-1.8-.6-3-1.3-2-1.3-2-3.4 0-1.8 1.5-3t3.9-1.2q1.6 0 2.8.6 1.2.6 2 1.7.7 1 .7 2.4h-2.7q0-1.2-.7-1.9t-2.1-.7q-1.3 0-2 .6-.7.5-.7 1.5 0 .9.7 1.4.8.6 2.6 1.1 1.7.5 2.8 1.2 1 .7 1.6 1.5.5.9.5 2 0 2-1.5 3-1.4 1.2-4 1.2-1.6 0-3-.6-1.3-.6-2-1.7-.9-1-.9-2.5h2.7q0 1.3.8 2 .9.7 2.5.7 1.4 0 2-.5.7-.6.7-1.5zm13.9-2.9h-6.3v4.7h7.3v2.1h-9.9v-15.2h9.8v2.2h-7.2v4.1h6.3v2.1zm3.2 6.8v-15.2h4.4q2 0 3.6 1 1.5.8 2.4 2.5.9 1.6.9 3.7v.8q0 2.2-1 3.8-.8 1.6-2.4 2.5-1.5.9-3.6.9h-4.3zm2.6-13v10.9h1.7q2 0 3.2-1.3 1.1-1.3 1.1-3.7v-.9q0-2.4-1-3.7-1.1-1.3-3.2-1.3h-1.8z"/><path fill="#3d85c6" d="M749.2 18.8h591v41.6h-591z" fill-rule="evenodd"/><path fill="#fff" d="m1297.5 39.3.7-1.5 1.2-1.6q1.4-1.1 2.6-1.1 1.8 0 1.8 1.6.2 2.2.9 5 .4 1.4 1.2 1.4.6 0 1-.7l3.6-3.5q3-2.9 4-4.2 1.4-1.6 3.7-3.8 2.3-2 3.6-2.9 1-.6 1.8-.5.9.1.7 1.2V31q.2.8 0 1-2.7 3.2-4.3 4.7-4 4.6-5.3 5.7l-9 8.6q-1.3 1.2-2.5 1.4-1.6.1-3.1-1.2-1.8-1.5-1.9-3.6-.1-2.3-.4-3.4-.4-1.8-.3-4.8z"/><path fill="#3d85c6" d="M16.4 275.8h967.8v41.6H16.4z" fill-rule="evenodd"/><path fill="#fff" d="m941.4 296.3.7-1.5 1.3-1.6q1.3-1.1 2.5-1.1 1.8 0 1.8 1.6.2 2.2 1 5 .3 1.4 1.1 1.4.6 0 1-.7 1.8-1.6 3.6-3.5 3-2.9 4.1-4.2 1.4-1.7 3.7-3.8l3.5-2.9q1-.6 1.9-.5.8.1.7 1.2-.2 1 0 2.2v1q-2.8 3.2-4.4 4.7-4 4.6-5.3 5.6l-8.9 8.7q-1.3 1.2-2.6 1.4-1.6.1-3-1.3-1.8-1.4-2-3.5-.1-2.3-.4-3.4-.4-1.9-.3-4.8z"/><path fill="#85200c" d="M393 317.4h201.6V359H393z" fill-rule="evenodd"/><path fill="#5b9c5b" d="M984.2 317.4h154.6V359H984.2z" fill-rule="evenodd"/><path fill="#9c7b5b" d="M16.4 188.3h101.4V230H16.4z" fill-rule="evenodd"/><path fill="#fff" d="M41 218q-.3-.4-.5-1.3-1.5 1.6-3.8 1.6t-3.7-1.2q-1.4-1.3-1.4-3.2 0-2.4 1.8-3.6 1.7-1.3 5-1.3h2v-1q0-1.1-.6-1.8-.7-.7-2-.7-1.1 0-1.8.6-.7.5-.7 1.4h-3.4q0-1.2.8-2.2.8-1.1 2.2-1.7 1.4-.6 3.1-.6 2.6 0 4.2 1.3 1.5 1.3 1.6 3.7v6.6q0 2 .5 3.2v.2H41zm-3.7-2.3q1 0 1.8-.5.9-.5 1.3-1.3V211h-1.8q-1.8 0-2.8.7-.9.6-.9 1.8 0 1 .7 1.5.6.6 1.7.6zm18.2-1.7q0-.9-.7-1.3-.7-.5-2.4-.8-1.7-.4-2.9-1-2.5-1.1-2.5-3.4 0-2 1.7-3.2 1.6-1.3 4-1.3 2.7 0 4.3 1.3 1.7 1.3 1.7 3.4h-3.3q0-1-.8-1.6-.7-.6-1.8-.6t-1.8.5q-.7.5-.7 1.3t.6 1.2q.7.4 2.6.9 2 .4 3 1 1.2.6 1.7 1.4.6.9.6 2 0 2-1.7 3.3-1.6 1.2-4.3 1.2-1.8 0-3.2-.6-1.5-.7-2.3-1.8-.7-1.2-.7-2.5h3.2q0 1.2.9 1.8.8.6 2.1.6 1.4 0 2-.5.7-.5.7-1.3zm11.4-.7 3-10h3.5l-5.9 17Q66.2 224 63 224l-1.6-.2v-2.6h.7q1.2 0 1.9-.4.6-.5 1-1.5l.4-1.3-5.1-14.7h3.5l3.2 10zm11.5-10v1.7q1.7-2 4.4-2 4.6 0 4.7 5.3v9.7h-3.3v-9.5q0-1.5-.6-2.1-.6-.7-2-.7-2 0-3 1.8V218h-3.3v-14.7h3zM97 215.7q1.2 0 2-.7.9-.8.9-1.8h3.1q0 1.3-.8 2.5t-2.2 2q-1.4.6-3 .6-3.1 0-5-2-1.7-2-1.7-5.5v-.4q0-3.4 1.8-5.4 1.8-2 4.9-2 2.6 0 4.3 1.5 1.6 1.6 1.7 4H100q0-1.2-.9-2-.8-.9-2-.9-1.6 0-2.5 1.2-.9 1.2-1 3.6v.5q0 2.4 1 3.6.8 1.2 2.5 1.2z"/><path fill="#9c7b5b" d="M16.4 317.4h93.5V359H16.4z" fill-rule="evenodd"/><path fill="#fff" d="M31.6 339.6q0-3.4 1.5-5.5 1.6-2 4.3-2 2.3 0 3.8 1.6V326h3.3v21h-3l-.1-1.5q-1.5 1.8-4 1.8-2.6 0-4.2-2.1t-1.6-5.7zm3.3.3q0 2.2.8 3.5 1 1.3 2.5 1.3 2 0 3-1.8v-6.4q-1-1.7-3-1.7-1.6 0-2.4 1.2-1 1.3-1 3.9zm19.6 7.5q-3.2 0-5.1-2-2-2-2-5.3v-.4q0-2.2.9-4 .8-1.7 2.4-2.7 1.5-1 3.4-1 3 0 4.7 2 1.6 1.9 1.6 5.4v1.4h-9.6q.1 1.8 1.2 2.9 1 1 2.7 1 2.3 0 3.7-1.8l1.8 1.7q-.9 1.3-2.4 2-1.5.8-3.3.8zm-.4-12.7q-1.4 0-2.2 1-.9 1-1 2.6h6.3v-.2q-.2-1.7-1-2.5-.7-.9-2-.9zm10 12.4v-12.3H62v-2.5h2.3V331q0-2.5 1.3-3.8 1.4-1.4 3.9-1.4.8 0 1.8.3v2.6l-1.3-.1q-2.4 0-2.4 2.4v1.3h3v2.5h-3V347h-3.3zm15 .3q-3.1 0-5.1-2-2-2-2-5.3v-.4q0-2.2.9-4 .8-1.7 2.4-2.7 1.5-1 3.4-1 3 0 4.7 2 1.7 1.9 1.7 5.4v1.4h-9.7q.1 1.8 1.2 2.9 1 1 2.7 1 2.3 0 3.7-1.8l1.8 1.7q-.9 1.3-2.3 2-1.5.8-3.4.8zm-.4-12.7q-1.3 0-2.2 1-.8 1-1 2.6h6.3v-.2q-.1-1.7-1-2.5-.7-.9-2-.9zm16.7.6H94q-2.3 0-3 1.7V347h-3.4v-14.8h3.2v1.7q1.3-2 3.4-2 .7 0 1.2.2v3.1z"/><path fill="#9c7b5b" d="M216.4 60.4h130.1v41.7h-130z" fill-rule="evenodd"/><path fill="#fff" d="m235.7 81.5 8 3V88l-11.4-5.1V80l11.5-5v3.3l-8 3zm20 4.6q0-.9-.7-1.4-.8-.4-2.5-.8-1.7-.3-2.8-.9-2.5-1.2-2.5-3.5 0-1.9 1.6-3.2 1.7-1.2 4.1-1.2 2.7 0 4.3 1.3 1.7 1.3 1.7 3.4h-3.4q0-1-.7-1.6-.7-.7-1.9-.7-1 0-1.7.6-.7.5-.7 1.3t.6 1.2q.7.4 2.6.8 2 .5 3 1 1.2.7 1.7 1.5.6.8.6 2 0 2-1.7 3.3-1.6 1.2-4.3 1.2-1.8 0-3.3-.7-1.4-.6-2.2-1.8-.8-1.1-.8-2.4h3.3q0 1.1.8 1.8.9.6 2.2.6 1.3 0 2-.5t.7-1.3zm12.2 1.6q1.3 0 2.1-.7t.9-1.8h3.1q0 1.4-.9 2.6-.8 1.2-2.1 1.9-1.4.7-3 .7-3.1 0-5-2-1.8-2-1.8-5.6v-.3q0-3.4 1.8-5.4 1.8-2 5-2 2.6 0 4.3 1.5 1.6 1.5 1.7 4h-3.1q0-1.3-.9-2-.8-.9-2-.9-1.7 0-2.5 1.2-1 1.2-1 3.5v.6q0 2.4 1 3.6.8 1.1 2.4 1.1zm16.4-9.4h-1.4q-2.3 0-3 1.7V90h-3.4V75.3h3.2V77q1.3-2 3.4-2 .7 0 1.2.2v3.1zm5.6 11.8h-3.3V75.3h3.3v14.8zm-3.5-18.6q0-.8.4-1.3.5-.5 1.4-.5 1 0 1.4.5.5.5.5 1.3 0 .7-.5 1.2t-1.4.5q-.9 0-1.4-.5-.4-.5-.4-1.2zm20 11.4q0 3.4-1.5 5.4-1.5 2.1-4.2 2.1-2.4 0-3.9-1.6v7h-3.3V75.3h3l.2 1.5q1.5-1.7 4-1.7 2.7 0 4.2 2 1.6 2 1.6 5.6v.2zm-3.3-.3q0-2.2-.8-3.5-1-1.3-2.6-1.3-2 0-2.9 1.6V86q1 1.7 3 1.7 1.6 0 2.5-1.2.8-1.3.8-4zm10.3-10.9v3.6h2.7v2.5h-2.7V86q0 .9.4 1.3.3.3 1.2.3h1.1V90q-1.1.3-2.2.3-3.8 0-3.8-4.2v-8.4h-2.4v-2.5h2.4v-3.6h3.3zm13.7 9.7-8.5-3V75l11.8 5v2.7l-11.8 5v-3.2l8.5-3.2z"/><path fill="none" d="M3.2 60.4h235.2v41.7H3.2z"/><path fill="#444" d="M30.7 84.7q-.2 2.9-2.1 4.5-1.9 1.6-5 1.6-2 0-3.7-1-1.7-1-2.6-3-.8-1.8-.9-4.3v-1.7q0-2.5 1-4.4.8-2 2.5-3t4-1q2.9 0 4.7 1.5 1.8 1.6 2.1 4.6h-3q-.3-2-1.2-2.8-1-.9-2.7-.9-2 0-3.1 1.5t-1.1 4.4v1.6q0 3 1 4.4 1 1.6 3 1.6 1.9 0 2.8-.9 1-.8 1.2-2.7h3.1zM48 82q0 2.7-1 4.7-.8 2-2.5 3-1.7 1.1-4 1.1-2.1 0-3.9-1-1.7-1.1-2.6-3.1-1-2-1-4.6v-1q0-2.6 1-4.6 1-2 2.6-3.1 1.7-1 4-1 2.1 0 3.8 1 1.7 1 2.6 3 1 2 1 4.6v1zm-3.1-1q0-3-1.2-4.5-1.1-1.6-3.2-1.6-2 0-3.1 1.6Q36 78 36 81v1q0 3 1.1 4.6 1.2 1.6 3.2 1.6 2.1 0 3.2-1.6 1.2-1.5 1.2-4.6v-1zm20.5 9.6h-3.1l-8-12.8v12.8H51v-18h3.1l8 12.8V72.6h3.2v18zm10-4 4.6-14h3.4l-6.4 18h-3l-6.5-18h3.4l4.5 14zm20.6-4h-7.4V88h8.7v2.5H85.4v-18H97V75h-8.6v5h7.4v2.4zm18 8h-3l-8-12.8v12.8h-3.2v-18h3.1l8 12.8V72.6h3.2v18zM130.4 75h-5.6v15.5h-3V75H116v-2.5h14.2V75zm5.7 15.5h-3.1v-18h3v18zm18.2-8.6q0 2.7-1 4.7-.8 2-2.5 3-1.7 1.1-4 1.1-2.1 0-3.8-1-1.7-1.1-2.7-3.1-1-2-1-4.6v-1q0-2.6 1-4.6 1-2 2.6-3.1 1.7-1 4-1 2.1 0 3.8 1 1.7 1 2.7 3 .9 2 1 4.6v1zm-3.1-1q0-3-1.2-4.5-1-1.6-3.2-1.6-2 0-3.1 1.6-1.2 1.6-1.2 4.5v1q0 3 1.2 4.6 1.1 1.6 3.2 1.6 2 0 3.2-1.6 1-1.5 1-4.6v-1zm20.5 9.6h-3.1l-8-12.8v12.8h-3.2v-18h3.2l8 12.8V72.6h3.1v18zm14-4.2h-7l-1.4 4.2h-3.3l6.8-18h2.8l6.8 18h-3.2l-1.5-4.2zm-6-2.6h5.1l-2.6-7.4-2.6 7.4zm16 4.3h8.1v2.5h-11.3v-18h3.1V88z"/></g></svg>